<svg width="208" height="70" viewBox="0 0 208 70" fill="none" xmlns="http://www.w3.org/2000/svg">
<path d="M64.9997 35.2665C64.9997 34.2188 64.7497 33.3807 64.2497 32.8119C63.7497 32.2232 63.0397 31.9238 62.1597 31.9238C61.2997 31.9238 60.5697 32.2232 59.9797 32.8518C59.3897 33.4605 58.9997 34.2587 58.8697 35.2566H64.9997V35.2665ZM66.8597 36.8032H58.8297C58.8497 38.0704 59.1897 39.0483 59.8497 39.7268C60.5097 40.4253 61.3997 40.7745 62.5297 40.7745C63.7997 40.7745 64.9897 40.3454 66.0497 39.5073V41.2136C65.0497 41.942 63.7297 42.3012 62.0897 42.3012C60.4797 42.3012 59.2197 41.7823 58.3197 40.7546C57.3897 39.7068 56.9297 38.26 56.9297 36.3941C56.9297 34.6279 57.4297 33.1911 58.4297 32.0635C59.4297 30.956 60.6797 30.4072 62.1797 30.4072C63.6597 30.4072 64.8197 30.8861 65.6097 31.834C66.4297 32.8119 66.8397 34.149 66.8397 35.8453L66.8597 36.8032Z" fill="white"/>
<path d="M78.7997 42.0218H76.9797V40.2257H76.9297C76.1797 41.6127 74.9997 42.2912 73.4297 42.2912C70.7197 42.2912 69.3597 40.6847 69.3597 37.4617V30.6766H71.1797V37.1624C71.1797 39.5671 72.0897 40.7745 73.9297 40.7745C74.8197 40.7745 75.5397 40.4353 76.1097 39.7966C76.6797 39.1381 76.9697 38.28 76.9697 37.2123V30.6766H78.7897L78.7997 42.0218Z" fill="white"/>
<path d="M88.4197 32.5225C88.0997 32.2731 87.6497 32.1633 87.0297 32.1633C86.2597 32.1633 85.6197 32.5225 85.0997 33.2509C84.5797 33.9794 84.2997 34.9772 84.2997 36.2444V42.0318H82.4797V30.6766H84.2997V33.0115H84.3497C84.5997 32.2132 85.0097 31.5846 85.5297 31.1555C86.0797 30.7065 86.6697 30.477 87.3297 30.477C87.8097 30.477 88.1697 30.5269 88.4197 30.6367V32.5225Z" fill="white"/>
<path d="M95.2798 31.9338C94.1198 31.9338 93.1898 32.323 92.5098 33.1412C91.8298 33.9394 91.4897 35.0271 91.4897 36.434C91.4897 37.7711 91.8298 38.8387 92.5098 39.6071C93.2098 40.4053 94.1198 40.7845 95.2798 40.7845C96.4598 40.7845 97.3698 40.3953 97.9898 39.627C98.6298 38.8787 98.9498 37.791 98.9498 36.3841C98.9498 34.9572 98.6298 33.8696 97.9898 33.0913C97.3698 32.313 96.4598 31.9338 95.2798 31.9338ZM95.1398 42.3012C93.4598 42.3012 92.1198 41.7823 91.1198 40.7146C90.1198 39.647 89.6197 38.24 89.6197 36.4939C89.6197 34.588 90.1398 33.0913 91.1898 32.0236C92.2398 30.956 93.6498 30.4171 95.4198 30.4171C97.0998 30.4171 98.4398 30.936 99.3798 31.9837C100.33 33.0314 100.81 34.4583 100.81 36.3143C100.81 38.1303 100.31 39.5771 99.2598 40.6747C98.2298 41.7524 96.8698 42.3012 95.1398 42.3012Z" fill="white"/>
<path d="M112.4 42.0218H103.96V26.1465H112.04V27.8228H105.83V33.1112H111.58V34.7876H105.83V40.3455H112.4V42.0218Z" fill="white"/>
<path d="M123.52 30.6766L119.7 36.414L123.45 42.0218H121.34L119.11 38.3498C118.97 38.1203 118.79 37.8309 118.61 37.4917H118.56C118.51 37.5615 118.36 37.8309 118.04 38.3498L115.77 42.0218H113.68L117.55 36.4639L113.84 30.6766H115.98L118.16 34.5581C118.32 34.8574 118.48 35.1468 118.64 35.4461H118.69L121.53 30.6766H123.52Z" fill="white"/>
<path d="M133.41 41.5029C132.55 42.0517 131.5 42.3012 130.29 42.3012C128.68 42.3012 127.38 41.7823 126.38 40.7146C125.38 39.6669 124.88 38.3099 124.88 36.6336C124.88 34.7477 125.43 33.2509 126.49 32.1234C127.56 30.9859 128.99 30.4171 130.79 30.4171C131.79 30.4171 132.68 30.5967 133.43 30.9659V32.8219C132.59 32.2332 131.68 31.9338 130.72 31.9338C129.56 31.9338 128.61 32.3429 127.86 33.1811C127.11 34.0193 126.75 35.1069 126.75 36.4739C126.75 37.811 127.09 38.8587 127.8 39.627C128.5 40.3953 129.44 40.7845 130.62 40.7845C131.62 40.7845 132.55 40.4452 133.42 39.7867L133.41 41.5029Z" fill="white"/>
<path d="M145.59 42.0218H143.77V35.4661C143.77 33.1013 142.88 31.9238 141.13 31.9238C140.24 31.9238 139.49 32.2631 138.88 32.9416C138.27 33.6201 137.97 34.5082 137.97 35.5759V42.0218H136.15V25.2384H137.97V32.5425H138.02C138.88 31.1156 140.13 30.4072 141.75 30.4072C144.32 30.4072 145.59 31.9538 145.59 35.037V42.0218Z" fill="white"/>
<path d="M155.35 36.2843L152.6 36.6735C151.76 36.7832 151.12 36.9928 150.69 37.2821C150.28 37.6014 150.05 38.1203 150.05 38.8886C150.05 39.4374 150.26 39.8865 150.64 40.2457C151.05 40.5849 151.57 40.7645 152.23 40.7645C153.14 40.7645 153.87 40.4452 154.46 39.8066C155.05 39.168 155.35 38.3797 155.35 37.4019V36.2843ZM157.17 42.0218H155.35V40.2556H155.3C154.5 41.6127 153.34 42.3012 151.8 42.3012C150.66 42.3012 149.78 42.0018 149.14 41.3932C148.5 40.8044 148.18 40.0062 148.18 39.0084C148.18 36.903 149.43 35.6457 151.93 35.3065L155.34 34.8275C155.34 32.9017 154.57 31.9238 153 31.9238C151.64 31.9238 150.41 32.4028 149.29 33.3308V31.4748C150.4 30.7763 151.7 30.4072 153.16 30.4072C155.82 30.4072 157.16 31.8141 157.16 34.6479V42.0218H157.17Z" fill="white"/>
<path d="M170.03 42.0218H168.21V35.536C168.21 33.1312 167.32 31.9238 165.57 31.9238C164.66 31.9238 163.91 32.2631 163.3 32.9416C162.71 33.6201 162.41 34.4882 162.41 35.526V42.0118H160.59V30.6766H162.41V32.5624H162.46C163.32 31.1356 164.55 30.4072 166.19 30.4072C167.44 30.4072 168.4 30.8163 169.06 31.6145C169.72 32.4128 170.04 33.5702 170.04 35.0869L170.03 42.0218Z" fill="white"/>
<path d="M181.36 36.893V35.2167C181.36 34.3086 181.06 33.5403 180.45 32.9017C179.84 32.2431 179.06 31.9238 178.15 31.9238C177.04 31.9238 176.15 32.3329 175.51 33.1512C174.87 33.9694 174.56 35.1268 174.56 36.6036C174.56 37.8709 174.88 38.8687 175.47 39.647C176.08 40.3953 176.9 40.7845 177.9 40.7845C178.92 40.7845 179.76 40.4253 180.4 39.6969C181.04 38.9585 181.36 38.0305 181.36 36.893ZM183.18 41.1138C183.18 45.2647 181.18 47.3502 177.18 47.3502C175.77 47.3502 174.54 47.0807 173.5 46.5519V44.7359C174.77 45.4443 176 45.8035 177.16 45.8035C179.98 45.8035 181.37 44.3268 181.37 41.3532V40.106H181.32C180.46 41.5628 179.16 42.2812 177.41 42.2812C176 42.2812 174.86 41.7823 174 40.7645C173.14 39.7667 172.7 38.4097 172.7 36.7034C172.7 34.7776 173.18 33.231 174.09 32.0935C175.02 30.956 176.3 30.3872 177.91 30.3872C179.46 30.3872 180.59 30.9959 181.32 32.2232H181.37V30.6566H183.19L183.18 41.1138Z" fill="white"/>
<path d="M194.14 35.2665C194.14 34.2188 193.89 33.3807 193.39 32.8119C192.89 32.2232 192.18 31.9238 191.3 31.9238C190.44 31.9238 189.71 32.2232 189.12 32.8518C188.53 33.4605 188.14 34.2587 188.01 35.2566H194.14V35.2665ZM196 36.8032H187.97C187.99 38.0704 188.33 39.0483 188.99 39.7268C189.65 40.4253 190.54 40.7745 191.67 40.7745C192.94 40.7745 194.13 40.3454 195.19 39.5073V41.2136C194.19 41.942 192.87 42.3012 191.23 42.3012C189.62 42.3012 188.36 41.7823 187.45 40.7546C186.52 39.7068 186.06 38.26 186.06 36.3941C186.06 34.6279 186.56 33.1911 187.56 32.0635C188.56 30.956 189.81 30.4072 191.31 30.4072C192.79 30.4072 193.95 30.8861 194.74 31.834C195.56 32.8119 195.97 34.149 195.97 35.8453L196 36.8032Z" fill="white"/>
<path d="M97.0698 51.9102L94.2697 47.5797C94.1897 47.4699 94.1397 47.3502 94.0897 47.2404H94.0698C94.0898 47.3601 94.0998 47.6096 94.0998 47.9888V51.9202H93.4598V46.482H94.2898L97.0198 50.7427C97.1298 50.9223 97.2098 51.0421 97.2398 51.1119H97.2598C97.2398 50.9523 97.2198 50.6829 97.2198 50.3137V46.482H97.8598V51.9102H97.0698ZM89.8397 46.951C89.2597 46.951 88.8097 47.1506 88.4497 47.5697C88.0897 47.9788 87.9097 48.5176 87.9097 49.1961C87.9097 49.8647 88.0797 50.4035 88.4297 50.8126C88.7797 51.2217 89.2297 51.4213 89.7897 51.4213C90.3897 51.4213 90.8597 51.2317 91.2098 50.8425C91.5498 50.4534 91.7198 49.9046 91.7198 49.2061C91.7198 48.4877 91.5598 47.9289 91.2198 47.5397C90.8898 47.1506 90.4197 46.951 89.8397 46.951ZM89.7897 52C89.0197 52 88.3997 51.7406 87.9397 51.2417C87.4697 50.7328 87.2397 50.0642 87.2397 49.256C87.2397 48.3879 87.4797 47.6894 87.9497 47.1705C88.4197 46.6417 89.0697 46.3823 89.8897 46.3823C90.6397 46.3823 91.2397 46.6317 91.6997 47.1406C92.1698 47.6495 92.3898 48.3081 92.3898 49.1163C92.3898 50.0044 92.1598 50.7128 91.6798 51.2217C91.2098 51.7406 90.5797 52 89.7897 52ZM82.7797 47.0508V51.3414H83.5897C84.3097 51.3414 84.8597 51.1518 85.2597 50.7627C85.6597 50.3835 85.8497 49.8347 85.8497 49.1362C85.8497 47.7493 85.1097 47.0508 83.6197 47.0508H82.7797ZM82.1397 51.9102V46.4721H83.6397C85.5597 46.4721 86.5197 47.3601 86.5197 49.1163C86.5197 49.9545 86.2597 50.633 85.7197 51.1419C85.1897 51.6508 84.4697 51.9002 83.5797 51.9002L82.1397 51.9102ZM80.7097 51.9102H79.9297L77.1297 47.5797C77.0497 47.4699 76.9997 47.3502 76.9497 47.2404H76.9297C76.9497 47.3601 76.9597 47.6096 76.9597 47.9888V51.9202H76.3197V46.482H77.1397L79.8697 50.7427C79.9797 50.9223 80.0597 51.0421 80.0897 51.1119H80.1097C80.0897 50.9523 80.0697 50.6829 80.0697 50.3137V46.482H80.7097V51.9102ZM72.6897 46.951C72.1097 46.951 71.6597 47.1506 71.2997 47.5697C70.9397 47.9788 70.7597 48.5176 70.7597 49.1961C70.7597 49.8647 70.9297 50.4035 71.2797 50.8126C71.6297 51.2217 72.0797 51.4213 72.6397 51.4213C73.2397 51.4213 73.7097 51.2317 74.0597 50.8425C74.3997 50.4534 74.5697 49.9046 74.5697 49.2061C74.5697 48.4877 74.4097 47.9289 74.0697 47.5397C73.7397 47.1506 73.2697 46.951 72.6897 46.951ZM72.6397 52C71.8697 52 71.2497 51.7406 70.7897 51.2417C70.3197 50.7328 70.0897 50.0642 70.0897 49.256C70.0897 48.3879 70.3297 47.6894 70.7997 47.1705C71.2697 46.6417 71.9197 46.3823 72.7397 46.3823C73.4997 46.3823 74.0897 46.6317 74.5497 47.1406C75.0197 47.6495 75.2397 48.3081 75.2397 49.1163C75.2397 50.0044 75.0097 50.7128 74.5297 51.2217C74.0697 51.7406 73.4397 52 72.6397 52ZM69.6097 51.9102H66.7797V46.4721H67.4197V51.3315H69.6097V51.9102Z" fill="white"/>
<path d="M147.29 51.9102H146.65V48.2582C146.65 47.9688 146.67 47.6196 146.7 47.2005H146.68C146.63 47.4499 146.57 47.6196 146.52 47.7293L144.66 51.9102H144.35L142.49 47.7593C142.44 47.6395 142.38 47.4499 142.33 47.2005H142.31C142.33 47.42 142.34 47.7792 142.34 48.2681V51.9102H141.72V46.4721H142.56L144.23 50.2638C144.36 50.5532 144.44 50.7727 144.48 50.9124H144.5C144.61 50.613 144.7 50.3935 144.77 50.2438L146.47 46.4721H147.27L147.29 51.9102Z" fill="white"/>
<path d="M149.36 46.4721H148.72V51.9102H149.36V46.4721Z" fill="white"/>
<path d="M153.53 49.8148L152.67 47.4898C152.64 47.42 152.61 47.3003 152.58 47.1306H152.56C152.54 47.2903 152.51 47.4 152.47 47.4998L151.62 49.8148H153.53ZM155.02 51.9102H154.31L153.73 50.3835H151.42L150.88 51.9102H150.17L152.26 46.4721H152.92L155.02 51.9102Z" fill="white"/>
<path d="M161.38 51.9102H160.74V48.2582C160.74 47.9688 160.76 47.6196 160.79 47.2005H160.78C160.73 47.4499 160.67 47.6196 160.62 47.7293L158.76 51.9102H158.45L156.59 47.7593C156.54 47.6395 156.48 47.4499 156.43 47.2005H156.41C156.43 47.42 156.44 47.7792 156.44 48.2681V51.9102H155.83V46.4721H156.67L158.34 50.2638C158.47 50.5532 158.55 50.7727 158.59 50.9124H158.61C158.72 50.613 158.8 50.3935 158.87 50.2438L160.57 46.4721H161.37L161.38 51.9102Z" fill="white"/>
<path d="M163.43 46.4721H162.79V51.9102H163.43V46.4721Z" fill="white"/>
<path d="M111.24 51.9102H110.6V48.2582C110.6 47.9688 110.62 47.6196 110.65 47.2005H110.63C110.58 47.4499 110.52 47.6196 110.47 47.7293L108.61 51.9102H108.3L106.44 47.7593C106.39 47.6395 106.33 47.4499 106.28 47.2005H106.26C106.28 47.42 106.29 47.7792 106.29 48.2681V51.9102H105.68V46.4721H106.52L108.19 50.2638C108.32 50.5532 108.4 50.7727 108.44 50.9124H108.46C108.57 50.613 108.65 50.3935 108.72 50.2438L110.42 46.4721H111.22L111.24 51.9102Z" fill="white"/>
<path d="M115.41 49.8148L114.55 47.4898C114.52 47.42 114.49 47.3003 114.46 47.1306H114.44C114.42 47.2903 114.39 47.4 114.35 47.4998L113.5 49.8148H115.41ZM116.89 51.9102H116.18L115.6 50.3835H113.29L112.75 51.9102H112.04L114.13 46.4721H114.79L116.89 51.9102Z" fill="white"/>
<path d="M118.33 47.0508V51.3414H119.14C119.86 51.3414 120.41 51.1518 120.81 50.7627C121.21 50.3835 121.4 49.8347 121.4 49.1362C121.4 47.7493 120.66 47.0508 119.17 47.0508H118.33ZM117.69 51.9102V46.4721H119.19C121.11 46.4721 122.07 47.3601 122.07 49.1163C122.07 49.9545 121.81 50.633 121.27 51.1419C120.74 51.6508 120.02 51.9002 119.13 51.9002L117.69 51.9102Z" fill="white"/>
<path d="M123.79 47.0508V49.0265H124.65C124.81 49.0265 124.96 49.0065 125.09 48.9566C125.23 48.9068 125.35 48.8369 125.45 48.7471C125.54 48.6573 125.62 48.5475 125.68 48.4178C125.74 48.2881 125.77 48.1384 125.77 47.9788C125.77 47.6894 125.68 47.4599 125.49 47.3003C125.3 47.1406 125.02 47.0608 124.67 47.0608L123.79 47.0508ZM127.06 51.9102H126.3L125.39 50.3835C125.3 50.2339 125.23 50.1241 125.15 50.0143C125.07 49.9146 124.99 49.8347 124.91 49.7649C124.82 49.705 124.74 49.6551 124.65 49.6352C124.55 49.6052 124.45 49.5853 124.32 49.5853H123.8V51.9002H123.16V46.4621H124.79C125.03 46.4621 125.25 46.492 125.45 46.5519C125.65 46.6118 125.82 46.7115 125.97 46.8213C126.12 46.941 126.23 47.0907 126.32 47.2803C126.41 47.4599 126.44 47.6695 126.44 47.9089C126.44 48.0985 126.41 48.2781 126.35 48.4278C126.3 48.5874 126.21 48.7271 126.11 48.8569C126 48.9766 125.88 49.0864 125.73 49.1762C125.58 49.266 125.41 49.3258 125.23 49.3757V49.3957C125.32 49.4356 125.39 49.4855 125.46 49.5254C125.53 49.5753 125.59 49.6451 125.65 49.715C125.7 49.7848 125.77 49.8746 125.83 49.9545C125.88 50.0443 125.95 50.1441 126.02 50.2638L127.06 51.9102Z" fill="white"/>
<path d="M130.52 47.0508V51.3414H131.33C132.05 51.3414 132.6 51.1518 133 50.7627C133.4 50.3835 133.59 49.8347 133.59 49.1362C133.59 47.7493 132.85 47.0508 131.36 47.0508H130.52ZM129.88 51.9102V46.4721H131.38C133.3 46.4721 134.26 47.3601 134.26 49.1163C134.26 49.9545 134 50.633 133.46 51.1419C132.93 51.6508 132.21 51.9002 131.32 51.9002L129.88 51.9102Z" fill="white"/>
<path d="M128.44 46.4721H127.8V51.9102H128.44V46.4721Z" fill="white"/>
<path d="M101.78 48.1783C102.32 48.1783 102.76 48.6174 102.76 49.1562C102.76 49.695 102.32 50.1341 101.78 50.1341C101.24 50.1341 100.8 49.695 100.8 49.1562C100.8 48.6174 101.24 48.1783 101.78 48.1783Z" fill="#959899"/>
<path d="M137.99 48.1783C138.53 48.1783 138.97 48.6174 138.97 49.1562C138.97 49.695 138.53 50.1341 137.99 50.1341C137.45 50.1341 137.01 49.695 137.01 49.1562C137.01 48.6174 137.45 48.1783 137.99 48.1783Z" fill="#959899"/>
<path d="M159.58 24.56C159.89 24.7496 160.34 24.9093 160.81 24.9093C161.51 24.9093 161.92 24.5401 161.92 24.0013C161.92 23.5024 161.64 23.223 160.92 22.9436C160.05 22.6342 159.52 22.1852 159.52 21.4369C159.52 20.6087 160.21 20 161.24 20C161.78 20 162.18 20.1297 162.42 20.2594L162.23 20.8182C162.06 20.7284 161.7 20.5688 161.22 20.5688C160.49 20.5688 160.22 20.9978 160.22 21.367C160.22 21.8659 160.54 22.1054 161.28 22.3948C162.18 22.744 162.64 23.1731 162.64 23.9514C162.64 24.7696 162.03 25.478 160.78 25.478C160.27 25.478 159.71 25.3284 159.42 25.1388L159.58 24.56Z" fill="white"/>
<path d="M166.32 22.9037H164.25V24.8195H166.55V25.3982H163.56V20.0898H166.43V20.6685H164.24V22.3449H166.31V22.9037H166.32Z" fill="white"/>
<path d="M171.17 25.2286C170.92 25.3583 170.41 25.478 169.77 25.478C168.27 25.478 167.14 24.5301 167.14 22.7939C167.14 21.1275 168.27 20.01 169.92 20.01C170.58 20.01 171 20.1497 171.18 20.2495L171.01 20.8082C170.75 20.6785 170.38 20.5887 169.94 20.5887C168.69 20.5887 167.86 21.387 167.86 22.7739C167.86 24.0711 168.61 24.9093 169.9 24.9093C170.32 24.9093 170.74 24.8195 171.02 24.6898L171.17 25.2286Z" fill="white"/>
<path d="M172.72 20.0898V23.2329C172.72 24.4203 173.25 24.9292 173.96 24.9292C174.75 24.9292 175.25 24.4104 175.25 23.2329V20.0898H175.94V23.183C175.94 24.8095 175.08 25.478 173.93 25.478C172.84 25.478 172.02 24.8594 172.02 23.213V20.0898H172.72Z" fill="white"/>
<path d="M177.14 20.1597C177.49 20.0898 177.98 20.0499 178.46 20.0499C179.19 20.0499 179.67 20.1796 180 20.479C180.27 20.7184 180.42 21.0776 180.42 21.4868C180.42 22.1852 179.98 22.6542 179.42 22.8438V22.8637C179.83 23.0034 180.08 23.3826 180.2 23.9314C180.37 24.6698 180.5 25.1787 180.61 25.3882H179.9C179.81 25.2386 179.69 24.7796 179.54 24.121C179.38 23.3926 179.1 23.1132 178.47 23.0932H177.82V25.3882H177.13V20.1597H177.14ZM177.83 22.5744H178.53C179.26 22.5744 179.73 22.1752 179.73 21.5666C179.73 20.8781 179.23 20.5787 178.51 20.5787C178.18 20.5787 177.94 20.6087 177.83 20.6386V22.5744Z" fill="white"/>
<path d="M182.07 20.0898V25.3982H181.38V20.0898H182.07Z" fill="white"/>
<path d="M184.28 20.6685H182.66V20.0898H186.6V20.6685H184.97V25.3982H184.28V20.6685Z" fill="white"/>
<path d="M187.88 20.0898V25.3982H187.19V20.0898H187.88Z" fill="white"/>
<path d="M191.84 22.9037H189.77V24.8195H192.07V25.3982H189.08V20.0898H191.95V20.6685H189.76V22.3449H191.83V22.9037H191.84Z" fill="white"/>
<path d="M192.88 24.56C193.19 24.7496 193.64 24.9093 194.11 24.9093C194.81 24.9093 195.22 24.5401 195.22 24.0013C195.22 23.5024 194.94 23.223 194.22 22.9436C193.35 22.6342 192.82 22.1852 192.82 21.4369C192.82 20.6087 193.51 20 194.54 20C195.08 20 195.48 20.1297 195.72 20.2594L195.53 20.8182C195.36 20.7284 195 20.5688 194.52 20.5688C193.79 20.5688 193.52 20.9978 193.52 21.367C193.52 21.8659 193.84 22.1054 194.58 22.3948C195.48 22.744 195.94 23.1731 195.94 23.9514C195.94 24.7696 195.33 25.478 194.08 25.478C193.57 25.478 193.01 25.3284 192.72 25.1388L192.88 24.56Z" fill="white"/>
<path d="M17.42 36.4784L8.35001 27.4281H22.86L31.9301 36.4784H17.42Z" fill="#AD1F27"/>
<path d="M31.0201 37.3864L40.0901 46.4366H25.58L16.51 37.3864H31.0201Z" fill="#222656"/>
<path d="M31.9301 36.4784L46.4301 22H31.9301L17.42 36.4784H31.9301Z" fill="#ED3438"/>
<path d="M16.51 37.3864L2 51.8648H16.51L31.0201 37.3864H16.51Z" fill="#3E4194"/>
</svg>
