
<svg width="146" height="24" viewBox="0 0 146 24" fill="none" xmlns="http://www.w3.org/2000/svg">
<path d="M11.5453 11.7293L4.75437 4.95318H15.6183L22.4092 11.7293H11.5453Z" fill="#AD1F27"/>
<path d="M21.7278 12.4091L28.5187 19.1852H17.6548L10.8639 12.4091H21.7278Z" fill="#222656"/>
<path d="M22.4092 11.7293L33.2656 0.889033H22.4092L11.5453 11.7293H22.4092Z" fill="#ED3438"/>
<path d="M10.8639 12.4091L0 23.2493H10.8639L21.7278 12.4091H10.8639Z" fill="#141414"/>
<path d="M47.9178 11.4303C47.9178 10.6459 47.7306 10.0183 47.3562 9.5925C46.9819 9.15172 46.4503 8.9276 45.7914 8.9276C45.1475 8.9276 44.6009 9.15172 44.1592 9.62239C43.7175 10.0781 43.4255 10.6758 43.3281 11.4229H47.9178V11.4303ZM49.3104 12.5808H43.2982C43.3131 13.5296 43.5677 14.2618 44.0619 14.7698C44.556 15.2928 45.2224 15.5543 46.0684 15.5543C47.0193 15.5543 47.9103 15.233 48.7039 14.6055V15.883C47.9552 16.4283 46.9669 16.6973 45.739 16.6973C44.5336 16.6973 43.5902 16.3088 42.9163 15.5393C42.22 14.7549 41.8756 13.6716 41.8756 12.2745C41.8756 10.9522 42.25 9.87639 42.9987 9.03219C43.7474 8.20292 44.6833 7.79202 45.8064 7.79202C46.9145 7.79202 47.783 8.15062 48.3745 8.86036C48.9884 9.5925 49.2954 10.5936 49.2954 11.8636L49.3104 12.5808Z" fill="#141414"/>
<path d="M58.2501 16.4881H56.8874V15.1434H56.85C56.2885 16.1818 55.405 16.6898 54.2295 16.6898C52.2004 16.6898 51.1822 15.487 51.1822 13.0739V7.99374H52.5449V12.8498C52.5449 14.6503 53.2262 15.5543 54.6038 15.5543C55.2702 15.5543 55.8093 15.3002 56.236 14.8221C56.6628 14.329 56.8799 13.6865 56.8799 12.8872V7.99374H58.2426L58.2501 16.4881Z" fill="#141414"/>
<path d="M65.4528 9.37585C65.2132 9.18908 64.8763 9.1069 64.4121 9.1069C63.8355 9.1069 63.3564 9.37585 62.967 9.92122C62.5777 10.4666 62.3681 11.2137 62.3681 12.1625V16.4956H61.0054V7.99374H62.3681V9.74192H62.4055C62.5927 9.14425 62.8996 8.67358 63.289 8.35234C63.7008 8.01615 64.1425 7.84432 64.6367 7.84432C64.9961 7.84432 65.2656 7.88167 65.4528 7.96385V9.37585Z" fill="#141414"/>
<path d="M70.589 8.93507C69.7205 8.93507 69.0242 9.22643 68.515 9.83904C68.0059 10.4367 67.7513 11.251 67.7513 12.3044C67.7513 13.3055 68.0059 14.1049 68.515 14.6802C69.0391 15.2778 69.7205 15.5617 70.589 15.5617C71.4725 15.5617 72.1538 15.2704 72.618 14.6951C73.0972 14.1348 73.3368 13.3205 73.3368 12.2671C73.3368 11.1987 73.0972 10.3844 72.618 9.80169C72.1538 9.21896 71.4725 8.93507 70.589 8.93507ZM70.4842 16.6973C69.2263 16.6973 68.223 16.3088 67.4743 15.5094C66.7256 14.71 66.3512 13.6567 66.3512 12.3493C66.3512 10.9223 66.7406 9.80169 67.5267 9.0023C68.3129 8.20292 69.3686 7.79949 70.6938 7.79949C71.9517 7.79949 72.9549 8.18798 73.6587 8.97242C74.37 9.75686 74.7294 10.8252 74.7294 12.2148C74.7294 13.5745 74.355 14.6577 73.5689 15.4795C72.7977 16.2864 71.7795 16.6973 70.4842 16.6973Z" fill="#141414"/>
<path d="M83.4071 16.4881H77.0879V4.60196H83.1375V5.85707H78.488V9.81663H82.7931V11.0717H78.488V15.233H83.4071V16.4881Z" fill="#141414"/>
<path d="M91.7328 7.99374L88.8727 12.2895L91.6804 16.4881H90.1006L88.431 13.7388C88.3261 13.567 88.1914 13.3503 88.0566 13.0963H88.0192C87.9817 13.1486 87.8694 13.3503 87.6298 13.7388L85.9302 16.4881H84.3654L87.263 12.3268L84.4852 7.99374H86.0875L87.7197 10.8999C87.8395 11.124 87.9593 11.3407 88.0791 11.5648H88.1165L90.2429 7.99374H91.7328Z" fill="#141414"/>
<path d="M99.1377 16.0996C98.4938 16.5105 97.7076 16.6973 96.8016 16.6973C95.5962 16.6973 94.6229 16.3088 93.8742 15.5094C93.1254 14.725 92.7511 13.7089 92.7511 12.4538C92.7511 11.0418 93.1629 9.92122 93.9565 9.07701C94.7576 8.22533 95.8283 7.79949 97.176 7.79949C97.9247 7.79949 98.5911 7.93397 99.1526 8.21039V9.59997C98.5237 9.15919 97.8424 8.93507 97.1236 8.93507C96.2551 8.93507 95.5438 9.24137 94.9823 9.86892C94.4207 10.4965 94.1512 11.3108 94.1512 12.3343C94.1512 13.3354 94.4058 14.1198 94.9373 14.6951C95.4614 15.2704 96.1652 15.5617 97.0487 15.5617C97.7974 15.5617 98.4938 15.3077 99.1451 14.8146L99.1377 16.0996Z" fill="#141414"/>
<path d="M108.257 16.4881H106.894V11.5798C106.894 9.80916 106.228 8.9276 104.918 8.9276C104.251 8.9276 103.69 9.1816 103.233 9.68962C102.776 10.1976 102.552 10.8625 102.552 11.6619V16.4881H101.189V3.92212H102.552V9.39079H102.589C103.233 8.32245 104.169 7.79202 105.382 7.79202C107.306 7.79202 108.257 8.95001 108.257 11.2585V16.4881Z" fill="#141414"/>
<path d="M115.565 12.1924L113.506 12.4837C112.877 12.5659 112.397 12.7228 112.076 12.9394C111.769 13.1785 111.596 13.567 111.596 14.1423C111.596 14.5532 111.754 14.8893 112.038 15.1583C112.345 15.4123 112.734 15.5468 113.229 15.5468C113.91 15.5468 114.456 15.3077 114.898 14.8296C115.34 14.3514 115.565 13.7612 115.565 13.0291V12.1924ZM116.927 16.4881H115.565V15.1658H115.527C114.928 16.1818 114.06 16.6973 112.907 16.6973C112.053 16.6973 111.394 16.4732 110.915 16.0174C110.436 15.5767 110.196 14.979 110.196 14.2319C110.196 12.6556 111.132 11.7142 113.004 11.4602L115.557 11.1016C115.557 9.65974 114.981 8.9276 113.805 8.9276C112.787 8.9276 111.866 9.2862 111.027 9.98099V8.59141C111.858 8.06845 112.832 7.79202 113.925 7.79202C115.916 7.79202 116.92 8.84541 116.92 10.9671V16.4881H116.927Z" fill="#141414"/>
<path d="M126.556 16.4881H125.193V11.632C125.193 9.83157 124.527 8.9276 123.216 8.9276C122.535 8.9276 121.974 9.1816 121.517 9.68962C121.075 10.1976 120.851 10.8476 120.851 11.6246V16.4806H119.488V7.99374H120.851V9.40573H120.888C121.532 8.3374 122.453 7.79202 123.681 7.79202C124.617 7.79202 125.335 8.09833 125.829 8.696C126.324 9.29367 126.563 10.1603 126.563 11.2959L126.556 16.4881Z" fill="#141414"/>
<path d="M135.039 12.6481V11.393C135.039 10.7131 134.814 10.1379 134.357 9.65974C133.901 9.16666 133.317 8.9276 132.635 8.9276C131.804 8.9276 131.138 9.2339 130.659 9.84651C130.18 10.4591 129.947 11.3257 129.947 12.4314C129.947 13.3802 130.187 14.1273 130.629 14.71C131.086 15.2704 131.699 15.5617 132.448 15.5617C133.212 15.5617 133.841 15.2928 134.32 14.7474C134.799 14.1946 135.039 13.4998 135.039 12.6481ZM136.401 15.8083C136.401 18.9161 134.904 20.4776 131.909 20.4776C130.853 20.4776 129.932 20.2758 129.154 19.8799V18.5202C130.105 19.0506 131.026 19.3196 131.894 19.3196C134.006 19.3196 135.046 18.2139 135.046 15.9876V15.0537H135.009C134.365 16.1444 133.392 16.6824 132.081 16.6824C131.026 16.6824 130.172 16.3088 129.528 15.5468C128.884 14.7997 128.555 13.7837 128.555 12.5061C128.555 11.0643 128.914 9.90628 129.596 9.0546C130.292 8.20292 131.25 7.77708 132.456 7.77708C133.616 7.77708 134.462 8.2328 135.009 9.15172H135.046V7.97879H136.409L136.401 15.8083Z" fill="#141414"/>
<path d="M144.607 11.4303C144.607 10.6459 144.42 10.0183 144.046 9.5925C143.671 9.15172 143.14 8.9276 142.481 8.9276C141.837 8.9276 141.291 9.15172 140.849 9.62239C140.407 10.0781 140.115 10.6758 140.018 11.4229H144.607V11.4303ZM146 12.5808H139.988C140.003 13.5296 140.257 14.2618 140.751 14.7698C141.246 15.2928 141.912 15.5543 142.758 15.5543C143.709 15.5543 144.6 15.233 145.394 14.6055V15.883C144.645 16.4283 143.657 16.6973 142.429 16.6973C141.223 16.6973 140.28 16.3088 139.598 15.5393C138.902 14.7549 138.558 13.6716 138.558 12.2745C138.558 10.9522 138.932 9.87639 139.681 9.03219C140.43 8.20292 141.365 7.79202 142.489 7.79202C143.597 7.79202 144.465 8.15062 145.057 8.86036C145.671 9.5925 145.978 10.5936 145.978 11.8636L146 12.5808Z" fill="#141414"/>
<path d="M71.9292 23.8917L69.8328 20.6494C69.7729 20.5672 69.7354 20.4776 69.698 20.3954H69.683C69.698 20.485 69.7055 20.6718 69.7055 20.9557V23.8992H69.2263V19.8276H69.8478L71.8918 23.0176C71.9741 23.1521 72.034 23.2418 72.0565 23.2941H72.0715C72.0565 23.1745 72.0415 22.9728 72.0415 22.6964V19.8276H72.5207V23.8917H71.9292ZM66.516 20.1787C66.0817 20.1787 65.7448 20.3281 65.4752 20.6419C65.2057 20.9482 65.0709 21.3516 65.0709 21.8597C65.0709 22.3602 65.1982 22.7636 65.4603 23.0699C65.7223 23.3762 66.0592 23.5257 66.4785 23.5257C66.9277 23.5257 67.2797 23.3837 67.5417 23.0924C67.7963 22.801 67.9236 22.3901 67.9236 21.8671C67.9236 21.3292 67.8038 20.9109 67.5492 20.6195C67.3021 20.3281 66.9502 20.1787 66.516 20.1787ZM66.4785 23.959C65.902 23.959 65.4378 23.7647 65.0934 23.3912C64.7415 23.0102 64.5693 22.5096 64.5693 21.9045C64.5693 21.2545 64.749 20.7316 65.1009 20.3431C65.4528 19.9471 65.9394 19.7529 66.5534 19.7529C67.1149 19.7529 67.5642 19.9396 67.9086 20.3207C68.2605 20.7017 68.4252 21.1948 68.4252 21.7999C68.4252 22.4648 68.253 22.9952 67.8936 23.3762C67.5417 23.7647 67.07 23.959 66.4785 23.959ZM61.23 20.2534V23.4659H61.8365C62.3755 23.4659 62.7873 23.3239 63.0868 23.0326C63.3863 22.7487 63.5286 22.3378 63.5286 21.8148C63.5286 20.7764 62.9745 20.2534 61.8589 20.2534H61.23ZM60.7508 23.8917V19.8201H61.8739C63.3114 19.8201 64.0302 20.485 64.0302 21.7999C64.0302 22.4274 63.8355 22.9355 63.4312 23.3165C63.0344 23.6975 62.4953 23.8843 61.829 23.8843L60.7508 23.8917ZM59.6801 23.8917H59.0961L56.9997 20.6494C56.9398 20.5672 56.9024 20.4776 56.865 20.3954H56.85C56.865 20.485 56.8725 20.6718 56.8725 20.9557V23.8992H56.3933V19.8276H57.0072L59.0512 23.0176C59.1336 23.1521 59.1935 23.2418 59.2159 23.2941H59.2309C59.2159 23.1745 59.201 22.9728 59.201 22.6964V19.8276H59.6801V23.8917ZM53.6754 20.1787C53.2412 20.1787 52.9042 20.3281 52.6347 20.6419C52.3652 20.9482 52.2304 21.3516 52.2304 21.8597C52.2304 22.3602 52.3577 22.7636 52.6197 23.0699C52.8818 23.3762 53.2187 23.5257 53.638 23.5257C54.0872 23.5257 54.4391 23.3837 54.7012 23.0924C54.9557 22.801 55.083 22.3901 55.083 21.8671C55.083 21.3292 54.9632 20.9109 54.7087 20.6195C54.4616 20.3281 54.1097 20.1787 53.6754 20.1787ZM53.638 23.959C53.0615 23.959 52.5973 23.7647 52.2529 23.3912C51.901 23.0102 51.7287 22.5096 51.7287 21.9045C51.7287 21.2545 51.9084 20.7316 52.2603 20.3431C52.6122 19.9471 53.0989 19.7529 53.7129 19.7529C54.2819 19.7529 54.7236 19.9396 55.068 20.3207C55.4199 20.7017 55.5847 21.1948 55.5847 21.7999C55.5847 22.4648 55.4124 22.9952 55.0531 23.3762C54.7087 23.7647 54.237 23.959 53.638 23.959ZM51.3694 23.8917H49.2505V19.8201H49.7297V23.4584H51.3694V23.8917Z" fill="#141414"/>
<path d="M109.53 23.8917H109.051V21.1574C109.051 20.9407 109.066 20.6793 109.088 20.3655H109.073C109.036 20.5523 108.991 20.6793 108.953 20.7614L107.561 23.8917H107.329L105.936 20.7839C105.899 20.6942 105.854 20.5523 105.816 20.3655H105.801C105.816 20.5298 105.824 20.7988 105.824 21.1649V23.8917H105.36V19.8201H105.988L107.239 22.659C107.336 22.8757 107.396 23.0401 107.426 23.1446H107.441C107.523 22.9205 107.591 22.7562 107.643 22.6441L108.916 19.8201H109.515L109.53 23.8917Z" fill="#141414"/>
<path d="M111.08 19.8201H110.601V23.8917H111.08V19.8201Z" fill="#141414"/>
<path d="M114.202 22.3229L113.558 20.5821C113.536 20.5298 113.513 20.4402 113.491 20.3132H113.476C113.461 20.4327 113.438 20.5149 113.408 20.5896L112.772 22.3229H114.202ZM115.317 23.8917H114.786L114.352 22.7487H112.622L112.218 23.8917H111.686L113.251 19.8201H113.745L115.317 23.8917Z" fill="#141414"/>
<path d="M120.079 23.8917H119.6V21.1574C119.6 20.9407 119.615 20.6793 119.638 20.3655H119.63C119.593 20.5523 119.548 20.6793 119.51 20.7614L118.118 23.8917H117.886L116.493 20.7839C116.456 20.6942 116.411 20.5523 116.373 20.3655H116.358C116.373 20.5298 116.381 20.7988 116.381 21.1649V23.8917H115.924V19.8201H116.553L117.803 22.659C117.901 22.8757 117.96 23.0401 117.99 23.1446H118.005C118.088 22.9205 118.148 22.7562 118.2 22.6441L119.473 19.8201H120.072L120.079 23.8917Z" fill="#141414"/>
<path d="M121.614 19.8201H121.135V23.8917H121.614V19.8201Z" fill="#141414"/>
<path d="M82.5386 23.8917H82.0594V21.1574C82.0594 20.9407 82.0743 20.6793 82.0968 20.3655H82.0818C82.0444 20.5523 81.9995 20.6793 81.962 20.7614L80.5694 23.8917H80.3373L78.9447 20.7839C78.9073 20.6942 78.8623 20.5523 78.8249 20.3655H78.8099C78.8249 20.5298 78.8324 20.7988 78.8324 21.1649V23.8917H78.3757V19.8201H79.0046L80.255 22.659C80.3523 22.8757 80.4122 23.0401 80.4421 23.1446H80.4571C80.5395 22.9205 80.5994 22.7562 80.6518 22.6441L81.9246 19.8201H82.5236L82.5386 23.8917Z" fill="#141414"/>
<path d="M85.6607 22.3229L85.0168 20.5821C84.9944 20.5298 84.9719 20.4402 84.9494 20.3132H84.9345C84.9195 20.4327 84.897 20.5149 84.8671 20.5896L84.2307 22.3229H85.6607ZM86.7688 23.8917H86.2372L85.803 22.7487H84.0734L83.6691 23.8917H83.1375L84.7023 19.8201H85.1965L86.7688 23.8917Z" fill="#141414"/>
<path d="M87.847 20.2534V23.4659H88.4534C88.9925 23.4659 89.4043 23.3239 89.7038 23.0326C90.0033 22.7487 90.1455 22.3378 90.1455 21.8148C90.1455 20.7764 89.5915 20.2534 88.4759 20.2534H87.847ZM87.3678 23.8917V19.8201H88.4909C89.9284 19.8201 90.6472 20.485 90.6472 21.7999C90.6472 22.4274 90.4525 22.9355 90.0482 23.3165C89.6514 23.6975 89.1123 23.8843 88.4459 23.8843L87.3678 23.8917Z" fill="#141414"/>
<path d="M91.935 20.2534V21.7327H92.5789C92.6987 21.7327 92.811 21.7177 92.9083 21.6804C93.0131 21.643 93.103 21.5907 93.1778 21.5235C93.2452 21.4562 93.3051 21.3741 93.3501 21.2769C93.395 21.1798 93.4174 21.0677 93.4174 20.9482C93.4174 20.7316 93.3501 20.5597 93.2078 20.4402C93.0655 20.3207 92.8559 20.2609 92.5938 20.2609L91.935 20.2534ZM94.3833 23.8917H93.8143L93.1329 22.7487C93.0655 22.6366 93.0131 22.5545 92.9532 22.4723C92.8933 22.3976 92.8334 22.3378 92.7735 22.2855C92.7062 22.2407 92.6463 22.2033 92.5789 22.1884C92.504 22.166 92.4291 22.151 92.3318 22.151H91.9425V23.8843H91.4633V19.8126H92.6837C92.8634 19.8126 93.0281 19.8351 93.1778 19.8799C93.3276 19.9247 93.4549 19.9994 93.5672 20.0816C93.6795 20.1712 93.7618 20.2833 93.8292 20.4253C93.8966 20.5597 93.9191 20.7166 93.9191 20.8959C93.9191 21.0379 93.8966 21.1723 93.8517 21.2844C93.8143 21.4039 93.7469 21.5085 93.672 21.6056C93.5896 21.6953 93.4998 21.7775 93.3875 21.8447C93.2752 21.912 93.1479 21.9568 93.0131 21.9941V22.0091C93.0805 22.039 93.1329 22.0763 93.1853 22.1062C93.2377 22.1436 93.2827 22.1958 93.3276 22.2481C93.365 22.3004 93.4174 22.3677 93.4624 22.4274C93.4998 22.4947 93.5522 22.5694 93.6046 22.659L94.3833 23.8917Z" fill="#141414"/>
<path d="M96.9739 20.2534V23.4659H97.5803C98.1194 23.4659 98.5312 23.3239 98.8307 23.0326C99.1302 22.7487 99.2724 22.3378 99.2724 21.8148C99.2724 20.7764 98.7184 20.2534 97.6028 20.2534H96.9739ZM96.4947 23.8917V19.8201H97.6178C99.0553 19.8201 99.7741 20.485 99.7741 21.7999C99.7741 22.4274 99.5794 22.9355 99.1751 23.3165C98.7783 23.6975 98.2392 23.8843 97.5728 23.8843L96.4947 23.8917Z" fill="#141414"/>
<path d="M95.4165 19.8201H94.9373V23.8917H95.4165V19.8201Z" fill="#141414"/>
<path d="M75.4557 21.0976C75.86 21.0976 76.1894 21.4263 76.1894 21.8298C76.1894 22.2332 75.86 22.5619 75.4557 22.5619C75.0514 22.5619 74.7219 22.2332 74.7219 21.8298C74.7219 21.4263 75.0514 21.0976 75.4557 21.0976Z" fill="#959899"/>
<path d="M102.567 21.0976C102.971 21.0976 103.301 21.4263 103.301 21.8298C103.301 22.2332 102.971 22.5619 102.567 22.5619C102.162 22.5619 101.833 22.2332 101.833 21.8298C101.833 21.4263 102.162 21.0976 102.567 21.0976Z" fill="#959899"/>
<path d="M118.732 3.41418C118.964 3.55613 119.301 3.67567 119.653 3.67567C120.177 3.67567 120.484 3.39924 120.484 2.99582C120.484 2.62227 120.274 2.41309 119.735 2.20391C119.084 1.97231 118.687 1.63612 118.687 1.0758C118.687 0.455723 119.204 0 119.975 0C120.379 0 120.679 0.0971214 120.858 0.194243L120.716 0.612611C120.589 0.545373 120.319 0.425839 119.96 0.425839C119.413 0.425839 119.211 0.747087 119.211 1.02351C119.211 1.39705 119.451 1.57635 120.005 1.79301C120.679 2.05449 121.023 2.37574 121.023 2.95846C121.023 3.57107 120.566 4.1015 119.63 4.1015C119.249 4.1015 118.829 3.98944 118.612 3.84749L118.732 3.41418Z" fill="#141414"/>
<path d="M123.778 2.17402H122.228V3.60843H123.95V4.04174H121.712V0.0672379H123.861V0.500548H122.221V1.75565H123.771V2.17402H123.778Z" fill="#141414"/>
<path d="M127.41 3.91473C127.222 4.01185 126.841 4.1015 126.361 4.1015C125.238 4.1015 124.392 3.39177 124.392 2.09184C124.392 0.844209 125.238 0.00747103 126.474 0.00747103C126.968 0.00747103 127.282 0.112063 127.417 0.186772L127.29 0.605141C127.095 0.50802 126.818 0.440781 126.489 0.440781C125.553 0.440781 124.931 1.03845 124.931 2.0769C124.931 3.04811 125.493 3.67567 126.459 3.67567C126.773 3.67567 127.088 3.60843 127.297 3.51131L127.41 3.91473Z" fill="#141414"/>
<path d="M128.57 0.0672379V2.42056C128.57 3.30959 128.967 3.69061 129.498 3.69061C130.09 3.69061 130.464 3.30212 130.464 2.42056V0.0672379H130.981V2.38321C130.981 3.60096 130.337 4.1015 129.476 4.1015C128.66 4.1015 128.046 3.63831 128.046 2.40562V0.0672379H128.57Z" fill="#141414"/>
<path d="M131.879 0.119534C132.141 0.0672377 132.508 0.0373552 132.868 0.0373552C133.414 0.0373552 133.774 0.134477 134.021 0.358603C134.223 0.537903 134.335 0.806853 134.335 1.11316C134.335 1.63612 134.006 1.98725 133.587 2.1292V2.14414C133.893 2.24873 134.081 2.53262 134.171 2.94352C134.298 3.49636 134.395 3.87738 134.477 4.03427H133.946C133.878 3.9222 133.789 3.57854 133.676 3.08547C133.557 2.54009 133.347 2.33091 132.875 2.31597H132.389V4.03427H131.872V0.119534H131.879ZM132.396 1.92748H132.92C133.467 1.92748 133.819 1.62865 133.819 1.17293C133.819 0.657436 133.444 0.43331 132.905 0.43331C132.658 0.43331 132.478 0.455724 132.396 0.478136V1.92748Z" fill="#141414"/>
<path d="M135.571 0.0672379V4.04174H135.054V0.0672379H135.571Z" fill="#141414"/>
<path d="M137.225 0.500548H136.012V0.0672379H138.962V0.500548H137.742V4.04174H137.225V0.500548Z" fill="#141414"/>
<path d="M139.921 0.0672379V4.04174H139.404V0.0672379H139.921Z" fill="#141414"/>
<path d="M142.886 2.17402H141.336V3.60843H143.058V4.04174H140.819V0.0672379H142.968V0.500548H141.328V1.75565H142.878V2.17402H142.886Z" fill="#141414"/>
<path d="M143.664 3.41418C143.896 3.55613 144.233 3.67567 144.585 3.67567C145.109 3.67567 145.416 3.39924 145.416 2.99582C145.416 2.62227 145.207 2.41309 144.668 2.20391C144.016 1.97231 143.619 1.63612 143.619 1.0758C143.619 0.455723 144.136 0 144.907 0C145.311 0 145.611 0.0971214 145.791 0.194243L145.648 0.612611C145.521 0.545373 145.252 0.425839 144.892 0.425839C144.346 0.425839 144.143 0.747087 144.143 1.02351C144.143 1.39705 144.383 1.57635 144.937 1.79301C145.611 2.05449 145.955 2.37574 145.955 2.95846C145.955 3.57107 145.499 4.1015 144.563 4.1015C144.181 4.1015 143.762 3.98944 143.544 3.84749L143.664 3.41418Z" fill="#141414"/>
<path d="M11.5453 11.5889L4.75437 4.81287H15.6183L22.4092 11.5889H11.5453Z" fill="#AD1F27"/>
<path d="M21.7278 12.2688L28.5187 19.0449H17.6548L10.8639 12.2688H21.7278Z" fill="#222656"/>
<path d="M22.4092 11.5889L33.2656 0.748718H22.4092L11.5453 11.5889H22.4092Z" fill="#ED3438"/>
<path d="M10.8639 12.2688L0 23.109H10.8639L21.7278 12.2688H10.8639Z" fill="#3E4194"/>
</svg>